<svg width="350" height="350" viewBox="0 0 350 350" fill="none" xmlns="http://www.w3.org/2000/svg">
<path d="M201.008 209.167V166.406V165.744C211.367 164.422 217.54 159.572 221.067 155.165C233.41 140.617 229.663 117.253 229.223 114.607C228.561 110.199 224.374 107.333 219.965 108.215C215.556 108.877 212.691 113.064 213.573 117.473C214.454 122.102 215.336 137.31 208.944 145.026C206.079 148.553 201.67 150.095 195.719 150.095L171.252 150.096C146.564 150.096 129.153 132.905 129.153 132.905C126.067 129.819 120.997 129.819 117.912 132.685C114.826 135.77 114.605 140.84 117.692 143.926C118.573 144.807 137.529 163.762 166.403 165.746V166.186V208.947L154.06 227.462C150.753 232.311 149.431 238.263 150.093 243.994L152.958 271.105C153.398 275.734 157.367 279.261 162.216 279.261H163.318C168.387 278.821 172.133 274.192 171.474 269.121L168.608 242.01C168.388 240.467 168.828 238.925 169.71 237.602L184.036 215.781L223.27 275.072C225.034 277.717 227.899 279.259 230.984 279.259C232.748 279.259 234.511 278.819 236.053 277.715C240.24 274.85 241.564 269.119 238.698 264.93L201.008 209.167Z" fill="white"/>
<path d="M175 108.877L201.009 115.269C202.553 115.709 203.875 114.387 203.435 112.844L196.822 83.9693C196.382 82.4258 194.397 81.7658 193.295 83.0876L173.898 105.57C173.016 106.674 173.678 108.437 175 108.877V108.877Z" fill="white"/>
<path d="M141.499 115.267C140.397 118.574 142.38 122.1 145.686 123.203L164.863 129.376C166.406 138.853 174.782 145.908 184.479 145.466C195.058 145.026 203.215 135.988 202.775 125.407C202.775 123.423 202.335 121.44 201.453 119.676C201.013 119.676 200.351 119.676 199.909 119.456L173.9 113.064C172.798 112.844 171.917 112.182 171.255 111.521C167.508 114.606 165.082 119.015 164.422 124.083L147.009 118.573C146.347 118.353 145.907 117.691 146.127 117.029C146.347 116.367 147.009 115.927 147.671 116.147C148.992 116.587 150.316 115.927 150.756 114.604C151.196 113.282 150.536 111.959 149.212 111.519C146.127 110.199 142.602 111.962 141.498 115.268L141.499 115.267Z" fill="white"/>
<path d="M254.132 125.628L250.826 124.306C249.945 123.866 249.063 123.204 248.843 122.322L247.521 119.015C247.301 118.575 246.639 118.575 246.419 119.015L245.098 122.322C244.658 123.204 243.996 124.086 243.114 124.306L239.807 125.628C239.367 125.848 239.367 126.509 239.807 126.729L243.114 128.051C243.996 128.491 244.878 129.153 245.098 130.035L246.419 133.342C246.639 133.782 247.301 133.782 247.521 133.342L248.843 130.035C249.283 129.153 249.945 128.271 250.826 128.051L254.133 126.729C254.573 126.509 254.573 125.849 254.132 125.628Z" fill="white"/>
<path d="M243.329 79.5598C243.991 79.7798 244.651 80.4416 244.873 81.1034L245.754 83.5287C245.974 83.9686 246.416 83.9686 246.636 83.5287L247.736 81.1034C247.956 80.4416 248.618 79.7817 249.28 79.5598L251.705 78.6781C252.145 78.4581 252.145 78.0163 251.705 77.7963L249.28 76.9146C248.618 76.6946 247.958 76.0328 247.736 75.371L246.854 72.9458C246.634 72.5058 246.193 72.5058 245.973 72.9458L245.091 75.371C244.871 76.0328 244.209 76.6928 243.547 76.9146L241.122 77.7963C240.682 78.0163 240.682 78.4581 241.122 78.6781L243.329 79.5598Z" fill="white"/>
<path d="M106.452 103.585C105.57 103.145 104.909 102.483 104.469 101.602L103.367 98.5163C103.145 97.8545 102.263 97.8545 102.263 98.2945L101.162 101.38C100.722 102.262 100.06 102.923 99.1781 103.363L96.0928 104.465C95.6528 104.685 95.6528 105.347 96.0928 105.567L99.1781 106.669C100.06 107.109 100.722 107.77 101.162 108.652L102.263 111.737C102.483 112.177 103.145 112.177 103.365 111.737L104.469 108.874C104.909 107.992 105.57 107.33 106.452 106.89L109.537 105.789C109.977 105.569 109.977 104.907 109.537 104.687L106.452 103.585Z" fill="white"/>
<path d="M155.824 96.3105C156.706 96.5305 157.146 97.1922 157.588 98.074L158.69 100.719C158.91 101.159 159.352 101.159 159.572 100.719L160.673 98.074C160.893 97.1923 161.555 96.7523 162.437 96.3105L165.082 95.2087C165.522 94.9887 165.522 94.5469 165.082 94.327L162.437 93.2252C161.555 93.0052 161.115 92.3435 160.673 91.4617L159.352 89.0364C159.132 88.5964 158.69 88.5964 158.47 89.0364L157.366 91.6817C157.146 92.5634 156.485 93.0034 155.603 93.4452L152.957 94.547C152.517 94.767 152.517 95.2088 152.957 95.4287L155.824 96.3105Z" fill="white"/>
<path d="M174.558 80.2207C175.22 80.6607 176.101 80.2207 176.101 79.339L175.881 72.7267C175.881 72.0649 175 71.6249 174.56 71.8449L169.049 74.9302C168.387 75.3702 168.387 76.2519 169.049 76.4737L174.558 80.2207Z" fill="white"/>
<path d="M97.1948 77.7959L103.587 79.3394C104.249 79.5594 104.909 78.8995 104.689 78.0177L102.485 71.6256C102.265 70.9638 101.383 70.7438 100.942 71.1856L96.5328 75.8144C96.3128 76.9143 96.5328 77.7961 97.1946 77.7961L97.1948 77.7959Z" fill="white"/>
<path d="M102.924 131.357L96.7517 129.594C96.0899 129.374 95.43 130.033 95.65 130.695L96.9717 137.308C97.1917 137.969 98.0734 138.409 98.5152 137.748L103.144 133.119C103.806 132.461 103.586 131.579 102.924 131.357L102.924 131.357Z" fill="white"/>
<path d="M123.203 93.4482C123.423 94.11 124.305 94.1099 124.524 93.6681L128.052 89.2593C128.491 88.8193 128.052 88.1576 127.612 87.9376L122.321 87.0558C121.659 87.0558 121.219 87.4958 121.439 88.1576L123.203 93.4482Z" fill="white"/>
<path d="M248.621 96.7527L242.891 96.0909C242.229 96.0909 241.789 96.5309 242.009 97.1926L244.212 102.703C244.432 103.365 245.314 103.365 245.756 102.923L249.283 98.0745C249.725 97.6345 249.283 96.9745 248.621 96.7527L248.621 96.7527Z" fill="white"/>
<path d="M207.403 77.7959L213.133 76.2523C213.795 76.0324 214.015 75.3706 213.573 74.9306L209.606 70.7436C209.166 70.3036 208.284 70.5236 208.284 71.1836L206.521 76.9139C206.081 77.3539 206.741 77.7956 207.403 77.7956L207.403 77.7959Z" fill="white"/>
<path d="M145.906 75.371C145.906 77.4418 144.228 79.1181 142.159 79.1181C140.09 79.1181 138.412 77.4418 138.412 75.371C138.412 73.3021 140.09 71.624 142.159 71.624C144.228 71.624 145.906 73.3021 145.906 75.371Z" fill="white"/>
<path d="M223.711 91.6842C223.711 93.7531 222.033 95.4312 219.964 95.4312C217.894 95.4312 216.217 93.7531 216.217 91.6842C216.217 89.6152 217.894 87.9371 219.964 87.9371C222.033 87.9371 223.711 89.6152 223.711 91.6842Z" fill="white"/>
<path d="M125.186 116.37C125.186 118.441 123.507 120.117 121.438 120.117C119.369 120.117 117.691 118.441 117.691 116.37C117.691 114.301 119.369 112.623 121.438 112.623C123.507 112.623 125.186 114.301 125.186 116.37Z" fill="white"/>
</svg>
